<?xml version="1.0" standalone="no"?><!DOCTYPE svg PUBLIC "-//W3C//DTD SVG 1.1//EN" "http://www.w3.org/Graphics/SVG/1.1/DTD/svg11.dtd"><svg t="1744614194480" class="icon" viewBox="0 0 1024 1024" version="1.1" xmlns="http://www.w3.org/2000/svg" p-id="2792" xmlns:xlink="http://www.w3.org/1999/xlink" width="200" height="200"><path d="M544 639.168c-17.6 0-32 14.464-32 32.064l0 96.128L64 767.36 64 190.464l448 0 0 96.192c0 17.6 14.4 32 32 32 17.6 0 32-14.4 32-32L576 190.464c0-35.264-28.8-64.128-64-64.128L64 126.336c-35.2 0-64 28.864-64 64.128l0 576.96c0 35.328 28.8 64.128 64 64.128l448 0c35.2 0 64-28.8 64-64.128l0-96.128C576 653.632 561.6 639.168 544 639.168zM956.16 463.104c-1.6-4.352-3.968-8.512-7.488-12.032L760.32 262.72c-12.992-12.992-34.048-12.992-47.04 0s-12.992 34.048 0 47.04l135.68 135.68L352 445.44c-17.664 0-32 14.336-32 32s14.336 32 32 32l496.96 0-135.68 135.68c-12.992 12.992-12.992 34.048 0 47.04 12.992 13.056 34.048 13.056 47.04 0l188.352-188.352c3.52-3.52 5.888-7.68 7.488-12.032C958.464 487.488 960 482.752 960 477.504S958.464 467.52 956.16 463.104z" p-id="2793"></path></svg>