<svg t="1743067924726" class="icon" viewBox="0 0 1024 1024" version="1.1" xmlns="http://www.w3.org/2000/svg" p-id="1073" width="200" height="200"><path d="M810.96 872.17H219.11c-28.38 0-51.48-23.09-51.48-51.48V675.26c0-28.39 23.1-51.48 51.48-51.48h591.85c28.38 0 51.48 23.09 51.48 51.48v145.43c0 28.39-23.1 51.48-51.48 51.48z m-591.85-201.1c-2.27 0-4.19 1.92-4.19 4.19v145.43c0 2.23 1.96 4.19 4.19 4.19h591.85c2.23 0 4.19-1.96 4.19-4.19V675.26c0-2.27-1.92-4.19-4.19-4.19H219.11zM191.28 900.27h647.51v47.29H191.28zM515.04 533.28c-126.56 0-229.53-102.97-229.53-229.53S388.47 74.21 515.04 74.21s229.53 102.97 229.53 229.53S641.6 533.28 515.04 533.28z m0-411.78c-100.49 0-182.24 81.76-182.24 182.24s81.75 182.24 182.24 182.24 182.24-81.76 182.24-182.24S615.53 121.5 515.04 121.5z" p-id="1074"></path><path d="M348.378 650.824l11.836-194.958 47.195 2.865-11.836 194.959zM622.721 458.752l47.195-2.86 11.816 194.958-47.195 2.86z" p-id="1075"></path></svg>