<?xml version="1.0" standalone="no"?><!DOCTYPE svg PUBLIC "-//W3C//DTD SVG 1.1//EN" "http://www.w3.org/Graphics/SVG/1.1/DTD/svg11.dtd"><svg t="1744013031693" class="icon" viewBox="0 0 1024 1024" version="1.1" xmlns="http://www.w3.org/2000/svg" p-id="1049" xmlns:xlink="http://www.w3.org/1999/xlink" width="200" height="200"><path d="M826.07 836.77H196c-39.18 0-71.05-31.87-71.05-71.05V340.14c0-39.18 31.87-71.05 71.05-71.05h630.07c39.18 0 71.05 31.87 71.05 71.05v425.58c0.01 39.18-31.87 71.05-71.05 71.05zM196 316.46c-13.06 0-23.68 10.63-23.68 23.68v425.58c0 13.06 10.62 23.68 23.68 23.68h630.07c13.06 0 23.68-10.63 23.68-23.68V340.14c0-13.06-10.62-23.68-23.68-23.68H196z" p-id="1050"></path><path d="M511.03 605.21c-32.81 0-65.63-12.49-90.61-37.47L174.96 322.28l33.49-33.49 245.47 245.46c31.5 31.49 82.75 31.48 114.24 0l245.47-245.46 33.49 33.49-245.47 245.46c-24.98 24.98-57.79 37.47-90.62 37.47z" p-id="1051"></path><path d="M813.62 809.28L568.16 563.83l33.48-33.51 245.47 245.47zM208.45 809.28l-33.49-33.49 245.47-245.47 33.49 33.51z" p-id="1052"></path></svg>