<?xml version="1.0" standalone="no"?><!DOCTYPE svg PUBLIC "-//W3C//DTD SVG 1.1//EN" "http://www.w3.org/Graphics/SVG/1.1/DTD/svg11.dtd"><svg t="1743068577876" class="icon" viewBox="0 0 1024 1024" version="1.1" xmlns="http://www.w3.org/2000/svg" p-id="2425" xmlns:xlink="http://www.w3.org/1999/xlink" width="200" height="200"><path d="M847 128.5 353 128.5c-21.5 0-39 17.5-39 39l0 273c0 0 8.2 13 17.1 13 10.5 0 21.9-13 21.9-13l0-273 406.2 0-146.2 65c-19.2 10.4-26 30.8-26 39l0 585L353 856.5l0-273c0 0-10-13-19.9-13-9.6 0-19.1 13-19.1 13l0 273c0 21.6 17.5 39 39 39l494 0c21.6 0 39-17.5 39-39l0-689C886 146 868.5 128.5 847 128.5zM847 856.5 626 856.5l0-585 221-104L847 856.5z" p-id="2426"></path><path d="M249 583.5l-52-52 273 0c0 0 14.3 0.3 13-26-0.5-9.5-13-13-13-13L197 492.5l52-52c0 0 23.2-22.6 0-39-12.5-8.9-26 0-26 0l-91 104 0 13 91 104c0 0 11.9 10.1 25.4 0.7C272.5 606.1 249 583.5 249 583.5z" p-id="2427"></path></svg>