<?xml version="1.0" standalone="no"?><!DOCTYPE svg PUBLIC "-//W3C//DTD SVG 1.1//EN" "http://www.w3.org/Graphics/SVG/1.1/DTD/svg11.dtd"><svg t="1743087762668" class="icon" viewBox="0 0 1024 1024" version="1.1" xmlns="http://www.w3.org/2000/svg" p-id="1073" xmlns:xlink="http://www.w3.org/1999/xlink" width="200" height="200"><path d="M689.05 185.82h46.97v148.69h-46.97zM689.05 363.54h46.97v45.82h-46.97z" p-id="1074"></path><path d="M712.54 516.84c-59.61 0-115.66-23.21-157.81-65.37-42.15-42.15-65.37-98.2-65.37-157.81S512.57 178 554.72 135.85c42.15-42.15 98.2-65.37 157.81-65.37s115.66 23.21 157.81 65.37c42.15 42.15 65.37 98.2 65.37 157.81s-23.21 115.66-65.37 157.81c-42.15 42.16-98.19 65.37-157.8 65.37z m0-399.39c-97.16 0-176.21 79.05-176.21 176.21s79.05 176.21 176.21 176.21 176.21-79.05 176.21-176.21-79.05-176.21-176.21-176.21z" p-id="1075"></path><path d="M701.52 945.08H152.28c-38.85 0-70.45-31.61-70.45-70.46V249.86c0-38.85 31.61-70.46 70.45-70.46h420.93l-17.5 34.18c-12.87 25.15-19.4 52.09-19.4 80.07 0 97.16 79.05 176.21 176.21 176.21 10.19 0 20.58-0.99 31.74-3.02l27.69-5.04v412.82c0.02 38.85-31.59 70.46-70.43 70.46z m-549.24-718.7c-12.95 0-23.48 10.54-23.48 23.49v624.77c0 12.95 10.54 23.48 23.48 23.48h549.23c12.95 0 23.48-10.54 23.48-23.48V516.46c-4.18 0.25-8.33 0.38-12.46 0.38-59.61 0-115.66-23.21-157.81-65.37-42.15-42.15-65.37-98.2-65.37-157.81 0-23.09 3.5-45.6 10.42-67.29H152.28z" p-id="1076"></path><path d="M234.99 383.42h200.56v46.97H234.99zM234.99 538.76h385.56v46.97H234.99zM234.99 694.09h385.56v46.97H234.99z" p-id="1077"></path></svg>