<?xml version="1.0" standalone="no"?><!DOCTYPE svg PUBLIC "-//W3C//DTD SVG 1.1//EN" "http://www.w3.org/Graphics/SVG/1.1/DTD/svg11.dtd"><svg t="1743068477991" class="icon" viewBox="0 0 1024 1024" version="1.1" xmlns="http://www.w3.org/2000/svg" p-id="924" xmlns:xlink="http://www.w3.org/1999/xlink" width="200" height="200"><path d="M874.03 901.35H151.64c-38.96 0-70.65-31.69-70.65-70.64V279.96c0-38.96 31.69-70.65 70.65-70.65h722.38c38.96 0 70.65 31.69 70.65 70.65v550.75c0 38.95-31.69 70.64-70.64 70.64zM151.64 256.41c-12.99 0-23.55 10.56-23.55 23.55v550.75c0 12.98 10.56 23.54 23.55 23.54h722.38c12.98 0 23.55-10.56 23.55-23.54V279.96c0-12.99-10.57-23.55-23.55-23.55H151.64z" p-id="925"></path><path d="M313.75 115.86h47.1v228.85h-47.1zM664.83 115.86h47.1v228.85h-47.1zM268.74 490.89h488.19v52.93H268.74z" p-id="926"></path><path d="M268.74 646.65h488.19v52.93H268.74z" p-id="927"></path></svg>