<?xml version="1.0" standalone="no"?><!DOCTYPE svg PUBLIC "-//W3C//DTD SVG 1.1//EN" "http://www.w3.org/Graphics/SVG/1.1/DTD/svg11.dtd"><svg t="1743087826014" class="icon" viewBox="0 0 1024 1024" version="1.1" xmlns="http://www.w3.org/2000/svg" p-id="1223" xmlns:xlink="http://www.w3.org/1999/xlink" width="200" height="200"><path d="M728.19 515.33c-59.98 0-116.38-23.36-158.79-65.77-42.42-42.41-65.77-98.81-65.77-158.79 0-59.98 23.36-116.38 65.77-158.79 42.41-42.42 98.8-65.78 158.79-65.78s116.38 23.36 158.79 65.77 65.77 98.81 65.77 158.79c0 59.98-23.36 116.38-65.77 158.79s-98.81 65.78-158.79 65.78z m0-401.87c-97.76 0-177.3 79.54-177.3 177.3s79.54 177.3 177.3 177.3 177.3-79.54 177.3-177.3-79.54-177.3-177.3-177.3z" p-id="1224"></path><path d="M717.1 946.22H164.46c-39.09 0-70.89-31.8-70.89-70.89V246.69c0-39.09 31.8-70.89 70.89-70.89H588l-17.61 34.4c-12.95 25.3-19.52 52.41-19.52 80.57 0 97.76 79.54 177.3 177.3 177.3 10.25 0 20.7-0.99 31.94-3.04l27.86-5.07v415.38c0.02 39.08-31.78 70.88-70.87 70.88zM164.46 223.06c-13.03 0-23.63 10.6-23.63 23.63v628.64c0 13.03 10.6 23.63 23.63 23.63H717.1c13.03 0 23.63-10.6 23.63-23.63V514.95c-4.21 0.25-8.38 0.38-12.54 0.38-59.98 0-116.37-23.36-158.79-65.77-42.41-42.41-65.77-98.81-65.77-158.79 0-23.23 3.52-45.89 10.49-67.7H164.46z" p-id="1225"></path><path d="M699.88 381.17l-92.41-84.81 31.95-34.82 61.44 56.38 119.39-102.97 30.87 35.79zM247.68 381.08h201.8v47.26h-201.8zM247.68 537.38h387.95v47.26H247.68zM247.68 693.68h387.95v47.26H247.68z" p-id="1226"></path></svg>